# xmcd
#
# Track frame offsets: 
#        150
#        13151
#        33157
#        49320
#        74062
#        95665
#
# Disc length: 1374 seconds
#
# Revision: 0
# Processed by: cddbd v1.5.2PL0 Copyright (c) Steve Scherf et al.
# Submitted via: ExactAudioCopy v0.99pb5
#
DISCID=52055c06
DTITLE=The Correspondents - What's Happened to Soho?
DYEAR=2011
DGENRE=Electro Swing
TTITLE0=Ground Floor
TTITLE1=What's Happened to Soho?
TTITLE2=Washington Square
TTITLE3=Bad Ragsaw Boogie
TTITLE4=Jive Man
TTITLE5=Basement
EXTD=
EXTT0=
EXTT1=
EXTT2=
EXTT3=
EXTT4=
EXTT5=
PLAYORDER=
